<mxfile host="app.diagrams.net" agent="Mozilla/5.0 (Windows NT 10.0; Win64; x64) AppleWebKit/537.36 (KHTML, like Gecko) Chrome/131.0.0.0 Safari/537.36" version="26.0.8">
  <diagram name="Страница — 1" id="KYhVzXA_JqChedGT6ZxI">
    <mxGraphModel dx="3468" dy="2159" grid="1" gridSize="10" guides="1" tooltips="1" connect="1" arrows="1" fold="1" page="1" pageScale="1" pageWidth="827" pageHeight="1169" math="0" shadow="0">
      <root>
        <mxCell id="0" />
        <mxCell id="1" parent="0" />
        <mxCell id="QbWSYiIUv1RwiBLjb3eN-40" value="" style="whiteSpace=wrap;html=1;aspect=fixed;fillColor=#dae8fc;strokeColor=#6c8ebf;" vertex="1" parent="1">
          <mxGeometry y="340" width="220" height="220" as="geometry" />
        </mxCell>
        <mxCell id="QbWSYiIUv1RwiBLjb3eN-12" style="edgeStyle=orthogonalEdgeStyle;rounded=0;orthogonalLoop=1;jettySize=auto;html=1;entryX=0.5;entryY=0;entryDx=0;entryDy=0;" edge="1" parent="1" target="QbWSYiIUv1RwiBLjb3eN-11">
          <mxGeometry relative="1" as="geometry">
            <mxPoint x="100" y="187.50000000000023" as="sourcePoint" />
          </mxGeometry>
        </mxCell>
        <mxCell id="PFv9AXi_Do-M4x5E7HLB-14" value="&lt;span style=&quot;background-color: transparent; color: light-dark(rgb(0, 0, 0), rgb(255, 255, 255));&quot;&gt;- Размер карты NxM клеток&lt;/span&gt;&lt;div&gt;- Корабли&lt;/div&gt;&lt;div&gt;- позиции выстрелов&lt;/div&gt;" style="shape=cylinder3;whiteSpace=wrap;html=1;boundedLbl=1;backgroundOutline=1;size=15;align=left;" parent="1" vertex="1">
          <mxGeometry x="-195" y="60" width="140" height="195" as="geometry" />
        </mxCell>
        <mxCell id="PFv9AXi_Do-M4x5E7HLB-15" value="" style="endArrow=none;dashed=1;html=1;dashPattern=1 3;strokeWidth=2;rounded=0;entryX=1;entryY=0.5;entryDx=0;entryDy=0;entryPerimeter=0;exitX=0;exitY=0.5;exitDx=0;exitDy=0;" parent="1" target="PFv9AXi_Do-M4x5E7HLB-14" edge="1">
          <mxGeometry width="50" height="50" relative="1" as="geometry">
            <mxPoint x="10" y="157.50000000000023" as="sourcePoint" />
            <mxPoint x="130" y="220" as="targetPoint" />
          </mxGeometry>
        </mxCell>
        <mxCell id="PFv9AXi_Do-M4x5E7HLB-16" value="+" style="rounded=0;whiteSpace=wrap;html=1;opacity=30;textOpacity=10;" parent="1" vertex="1">
          <mxGeometry x="-760" y="147.5" width="20" height="20" as="geometry" />
        </mxCell>
        <mxCell id="PFv9AXi_Do-M4x5E7HLB-17" value="+" style="rounded=0;whiteSpace=wrap;html=1;opacity=30;textOpacity=10;" parent="1" vertex="1">
          <mxGeometry x="-740" y="147.5" width="20" height="20" as="geometry" />
        </mxCell>
        <mxCell id="PFv9AXi_Do-M4x5E7HLB-18" value="+" style="rounded=0;whiteSpace=wrap;html=1;opacity=30;textOpacity=10;" parent="1" vertex="1">
          <mxGeometry x="-720" y="147.5" width="20" height="20" as="geometry" />
        </mxCell>
        <mxCell id="PFv9AXi_Do-M4x5E7HLB-19" value="+" style="rounded=0;whiteSpace=wrap;html=1;opacity=30;textOpacity=10;" parent="1" vertex="1">
          <mxGeometry x="-700" y="147.5" width="20" height="20" as="geometry" />
        </mxCell>
        <mxCell id="PFv9AXi_Do-M4x5E7HLB-20" value="" style="rounded=0;whiteSpace=wrap;html=1;opacity=30;textOpacity=10;" parent="1" vertex="1">
          <mxGeometry x="-680" y="147.5" width="20" height="20" as="geometry" />
        </mxCell>
        <mxCell id="PFv9AXi_Do-M4x5E7HLB-21" value="" style="rounded=0;whiteSpace=wrap;html=1;opacity=30;textOpacity=10;" parent="1" vertex="1">
          <mxGeometry x="-760" y="167.5" width="20" height="20" as="geometry" />
        </mxCell>
        <mxCell id="PFv9AXi_Do-M4x5E7HLB-22" value="" style="rounded=0;whiteSpace=wrap;html=1;opacity=30;textOpacity=10;" parent="1" vertex="1">
          <mxGeometry x="-740" y="167.5" width="20" height="20" as="geometry" />
        </mxCell>
        <mxCell id="PFv9AXi_Do-M4x5E7HLB-23" value="" style="rounded=0;whiteSpace=wrap;html=1;opacity=30;textOpacity=10;" parent="1" vertex="1">
          <mxGeometry x="-720" y="167.5" width="20" height="20" as="geometry" />
        </mxCell>
        <mxCell id="PFv9AXi_Do-M4x5E7HLB-24" value="" style="rounded=0;whiteSpace=wrap;html=1;opacity=30;textOpacity=10;" parent="1" vertex="1">
          <mxGeometry x="-700" y="167.5" width="20" height="20" as="geometry" />
        </mxCell>
        <mxCell id="PFv9AXi_Do-M4x5E7HLB-25" value="" style="rounded=0;whiteSpace=wrap;html=1;opacity=30;textOpacity=10;" parent="1" vertex="1">
          <mxGeometry x="-680" y="167.5" width="20" height="20" as="geometry" />
        </mxCell>
        <mxCell id="PFv9AXi_Do-M4x5E7HLB-26" value="" style="rounded=0;whiteSpace=wrap;html=1;opacity=30;textOpacity=10;" parent="1" vertex="1">
          <mxGeometry x="-660" y="147.5" width="20" height="20" as="geometry" />
        </mxCell>
        <mxCell id="PFv9AXi_Do-M4x5E7HLB-27" value="" style="rounded=0;whiteSpace=wrap;html=1;opacity=30;textOpacity=10;" parent="1" vertex="1">
          <mxGeometry x="-660" y="167.5" width="20" height="20" as="geometry" />
        </mxCell>
        <mxCell id="PFv9AXi_Do-M4x5E7HLB-28" value="" style="rounded=0;whiteSpace=wrap;html=1;opacity=30;textOpacity=10;" parent="1" vertex="1">
          <mxGeometry x="-640" y="147.5" width="20" height="20" as="geometry" />
        </mxCell>
        <mxCell id="PFv9AXi_Do-M4x5E7HLB-29" value="" style="rounded=0;whiteSpace=wrap;html=1;opacity=30;textOpacity=10;" parent="1" vertex="1">
          <mxGeometry x="-640" y="167.5" width="20" height="20" as="geometry" />
        </mxCell>
        <mxCell id="PFv9AXi_Do-M4x5E7HLB-30" value="" style="rounded=0;whiteSpace=wrap;html=1;opacity=30;textOpacity=10;" parent="1" vertex="1">
          <mxGeometry x="-680" y="147.5" width="20" height="20" as="geometry" />
        </mxCell>
        <mxCell id="PFv9AXi_Do-M4x5E7HLB-31" value="обсуждение как организовать поле, присылать только размер поля и нач-конеч позиции кораблей или присылать всю матрицу" style="text;html=1;align=left;verticalAlign=middle;whiteSpace=wrap;rounded=0;opacity=30;textOpacity=10;" parent="1" vertex="1">
          <mxGeometry x="-760" y="70" width="220" height="77.5" as="geometry" />
        </mxCell>
        <mxCell id="PFv9AXi_Do-M4x5E7HLB-32" value="" style="rounded=0;whiteSpace=wrap;html=1;opacity=30;textOpacity=10;" parent="1" vertex="1">
          <mxGeometry x="-760" y="187.5" width="20" height="20" as="geometry" />
        </mxCell>
        <mxCell id="PFv9AXi_Do-M4x5E7HLB-33" value="" style="rounded=0;whiteSpace=wrap;html=1;opacity=30;textOpacity=10;" parent="1" vertex="1">
          <mxGeometry x="-740" y="187.5" width="20" height="20" as="geometry" />
        </mxCell>
        <mxCell id="PFv9AXi_Do-M4x5E7HLB-34" value="" style="rounded=0;whiteSpace=wrap;html=1;opacity=30;textOpacity=10;" parent="1" vertex="1">
          <mxGeometry x="-720" y="187.5" width="20" height="20" as="geometry" />
        </mxCell>
        <mxCell id="PFv9AXi_Do-M4x5E7HLB-35" value="" style="rounded=0;whiteSpace=wrap;html=1;opacity=30;textOpacity=10;" parent="1" vertex="1">
          <mxGeometry x="-700" y="187.5" width="20" height="20" as="geometry" />
        </mxCell>
        <mxCell id="PFv9AXi_Do-M4x5E7HLB-36" value="" style="rounded=0;whiteSpace=wrap;html=1;opacity=30;textOpacity=10;" parent="1" vertex="1">
          <mxGeometry x="-680" y="187.5" width="20" height="20" as="geometry" />
        </mxCell>
        <mxCell id="PFv9AXi_Do-M4x5E7HLB-37" value="" style="rounded=0;whiteSpace=wrap;html=1;opacity=30;textOpacity=10;" parent="1" vertex="1">
          <mxGeometry x="-760" y="207.5" width="20" height="20" as="geometry" />
        </mxCell>
        <mxCell id="PFv9AXi_Do-M4x5E7HLB-38" value="" style="rounded=0;whiteSpace=wrap;html=1;opacity=30;textOpacity=10;" parent="1" vertex="1">
          <mxGeometry x="-740" y="207.5" width="20" height="20" as="geometry" />
        </mxCell>
        <mxCell id="PFv9AXi_Do-M4x5E7HLB-39" value="" style="rounded=0;whiteSpace=wrap;html=1;opacity=30;textOpacity=10;" parent="1" vertex="1">
          <mxGeometry x="-720" y="207.5" width="20" height="20" as="geometry" />
        </mxCell>
        <mxCell id="PFv9AXi_Do-M4x5E7HLB-40" value="" style="rounded=0;whiteSpace=wrap;html=1;opacity=30;textOpacity=10;" parent="1" vertex="1">
          <mxGeometry x="-700" y="207.5" width="20" height="20" as="geometry" />
        </mxCell>
        <mxCell id="PFv9AXi_Do-M4x5E7HLB-41" value="" style="rounded=0;whiteSpace=wrap;html=1;opacity=30;textOpacity=10;" parent="1" vertex="1">
          <mxGeometry x="-680" y="207.5" width="20" height="20" as="geometry" />
        </mxCell>
        <mxCell id="PFv9AXi_Do-M4x5E7HLB-42" value="" style="rounded=0;whiteSpace=wrap;html=1;opacity=30;textOpacity=10;" parent="1" vertex="1">
          <mxGeometry x="-660" y="187.5" width="20" height="20" as="geometry" />
        </mxCell>
        <mxCell id="PFv9AXi_Do-M4x5E7HLB-43" value="" style="rounded=0;whiteSpace=wrap;html=1;opacity=30;textOpacity=10;" parent="1" vertex="1">
          <mxGeometry x="-660" y="207.5" width="20" height="20" as="geometry" />
        </mxCell>
        <mxCell id="PFv9AXi_Do-M4x5E7HLB-44" value="" style="rounded=0;whiteSpace=wrap;html=1;opacity=30;textOpacity=10;" parent="1" vertex="1">
          <mxGeometry x="-640" y="187.5" width="20" height="20" as="geometry" />
        </mxCell>
        <mxCell id="PFv9AXi_Do-M4x5E7HLB-45" value="" style="rounded=0;whiteSpace=wrap;html=1;opacity=30;textOpacity=10;" parent="1" vertex="1">
          <mxGeometry x="-640" y="207.5" width="20" height="20" as="geometry" />
        </mxCell>
        <mxCell id="PFv9AXi_Do-M4x5E7HLB-46" value="" style="rounded=0;whiteSpace=wrap;html=1;opacity=30;textOpacity=10;" parent="1" vertex="1">
          <mxGeometry x="-680" y="187.5" width="20" height="20" as="geometry" />
        </mxCell>
        <mxCell id="PFv9AXi_Do-M4x5E7HLB-47" value="" style="rounded=0;whiteSpace=wrap;html=1;opacity=30;textOpacity=10;" parent="1" vertex="1">
          <mxGeometry x="-760" y="227.5" width="20" height="20" as="geometry" />
        </mxCell>
        <mxCell id="PFv9AXi_Do-M4x5E7HLB-48" value="" style="rounded=0;whiteSpace=wrap;html=1;opacity=30;textOpacity=10;" parent="1" vertex="1">
          <mxGeometry x="-740" y="227.5" width="20" height="20" as="geometry" />
        </mxCell>
        <mxCell id="PFv9AXi_Do-M4x5E7HLB-49" value="" style="rounded=0;whiteSpace=wrap;html=1;opacity=30;textOpacity=10;" parent="1" vertex="1">
          <mxGeometry x="-720" y="227.5" width="20" height="20" as="geometry" />
        </mxCell>
        <mxCell id="PFv9AXi_Do-M4x5E7HLB-50" value="" style="rounded=0;whiteSpace=wrap;html=1;opacity=30;textOpacity=10;" parent="1" vertex="1">
          <mxGeometry x="-700" y="227.5" width="20" height="20" as="geometry" />
        </mxCell>
        <mxCell id="PFv9AXi_Do-M4x5E7HLB-51" value="" style="rounded=0;whiteSpace=wrap;html=1;opacity=30;textOpacity=10;" parent="1" vertex="1">
          <mxGeometry x="-680" y="227.5" width="20" height="20" as="geometry" />
        </mxCell>
        <mxCell id="PFv9AXi_Do-M4x5E7HLB-52" value="" style="rounded=0;whiteSpace=wrap;html=1;opacity=30;textOpacity=10;" parent="1" vertex="1">
          <mxGeometry x="-760" y="247.5" width="20" height="20" as="geometry" />
        </mxCell>
        <mxCell id="PFv9AXi_Do-M4x5E7HLB-53" value="" style="rounded=0;whiteSpace=wrap;html=1;opacity=30;textOpacity=10;" parent="1" vertex="1">
          <mxGeometry x="-740" y="247.5" width="20" height="20" as="geometry" />
        </mxCell>
        <mxCell id="PFv9AXi_Do-M4x5E7HLB-54" value="" style="rounded=0;whiteSpace=wrap;html=1;opacity=30;textOpacity=10;" parent="1" vertex="1">
          <mxGeometry x="-720" y="247.5" width="20" height="20" as="geometry" />
        </mxCell>
        <mxCell id="PFv9AXi_Do-M4x5E7HLB-55" value="" style="rounded=0;whiteSpace=wrap;html=1;opacity=30;textOpacity=10;" parent="1" vertex="1">
          <mxGeometry x="-700" y="247.5" width="20" height="20" as="geometry" />
        </mxCell>
        <mxCell id="PFv9AXi_Do-M4x5E7HLB-56" value="" style="rounded=0;whiteSpace=wrap;html=1;opacity=30;textOpacity=10;" parent="1" vertex="1">
          <mxGeometry x="-680" y="247.5" width="20" height="20" as="geometry" />
        </mxCell>
        <mxCell id="PFv9AXi_Do-M4x5E7HLB-57" value="" style="rounded=0;whiteSpace=wrap;html=1;opacity=30;textOpacity=10;" parent="1" vertex="1">
          <mxGeometry x="-660" y="227.5" width="20" height="20" as="geometry" />
        </mxCell>
        <mxCell id="PFv9AXi_Do-M4x5E7HLB-58" value="" style="rounded=0;whiteSpace=wrap;html=1;opacity=30;textOpacity=10;" parent="1" vertex="1">
          <mxGeometry x="-660" y="247.5" width="20" height="20" as="geometry" />
        </mxCell>
        <mxCell id="PFv9AXi_Do-M4x5E7HLB-59" value="" style="rounded=0;whiteSpace=wrap;html=1;opacity=30;textOpacity=10;" parent="1" vertex="1">
          <mxGeometry x="-640" y="227.5" width="20" height="20" as="geometry" />
        </mxCell>
        <mxCell id="PFv9AXi_Do-M4x5E7HLB-60" value="" style="rounded=0;whiteSpace=wrap;html=1;opacity=30;textOpacity=10;" parent="1" vertex="1">
          <mxGeometry x="-640" y="247.5" width="20" height="20" as="geometry" />
        </mxCell>
        <mxCell id="PFv9AXi_Do-M4x5E7HLB-61" value="" style="rounded=0;whiteSpace=wrap;html=1;opacity=30;textOpacity=10;" parent="1" vertex="1">
          <mxGeometry x="-680" y="227.5" width="20" height="20" as="geometry" />
        </mxCell>
        <mxCell id="PFv9AXi_Do-M4x5E7HLB-63" value="Game STATE" style="text;html=1;align=center;verticalAlign=middle;whiteSpace=wrap;rounded=0;" parent="1" vertex="1">
          <mxGeometry x="-190" y="30" width="130" height="40" as="geometry" />
        </mxCell>
        <mxCell id="PFv9AXi_Do-M4x5E7HLB-64" value="" style="endArrow=none;dashed=1;html=1;dashPattern=1 3;strokeWidth=2;rounded=0;exitX=-0.007;exitY=0.593;exitDx=0;exitDy=0;exitPerimeter=0;" parent="1" source="PFv9AXi_Do-M4x5E7HLB-14" target="PFv9AXi_Do-M4x5E7HLB-65" edge="1">
          <mxGeometry width="50" height="50" relative="1" as="geometry">
            <mxPoint x="-200" y="180" as="sourcePoint" />
            <mxPoint x="-260" y="185" as="targetPoint" />
          </mxGeometry>
        </mxCell>
        <mxCell id="PFv9AXi_Do-M4x5E7HLB-65" value="Корабль" style="swimlane;horizontal=0;whiteSpace=wrap;html=1;" parent="1" vertex="1">
          <mxGeometry x="-460" y="20" width="230" height="90" as="geometry">
            <mxRectangle x="-490" y="50" width="40" height="80" as="alternateBounds" />
          </mxGeometry>
        </mxCell>
        <mxCell id="PFv9AXi_Do-M4x5E7HLB-66" value="&lt;ul&gt;&lt;li&gt;&lt;font style=&quot;font-size: 10px;&quot;&gt;Позиция - x1y1-x2y2&lt;/font&gt;&lt;/li&gt;&lt;li style=&quot;&quot;&gt;&lt;font style=&quot;font-size: 10px;&quot;&gt;Палубность?&lt;/font&gt;&lt;/li&gt;&lt;li style=&quot;&quot;&gt;&lt;font style=&quot;font-size: 10px;&quot;&gt;Принадлежность игроку&lt;/font&gt;&lt;/li&gt;&lt;li style=&quot;&quot;&gt;&lt;font style=&quot;font-size: 10px;&quot;&gt;хп? позиции здоровых/дохлых клеток&lt;/font&gt;&lt;/li&gt;&lt;li style=&quot;&quot;&gt;&lt;span style=&quot;font-size: 10px;&quot;&gt;Дохлый - да/нет&lt;/span&gt;&lt;/li&gt;&lt;/ul&gt;" style="text;html=1;align=left;verticalAlign=middle;resizable=0;points=[];autosize=1;strokeColor=none;fillColor=none;" parent="PFv9AXi_Do-M4x5E7HLB-65" vertex="1">
          <mxGeometry x="5" y="-12.5" width="240" height="110" as="geometry" />
        </mxCell>
        <mxCell id="PFv9AXi_Do-M4x5E7HLB-68" value="Выстрел" style="swimlane;horizontal=0;whiteSpace=wrap;html=1;" parent="1" vertex="1">
          <mxGeometry x="-530" y="160" width="300" height="60" as="geometry">
            <mxRectangle x="-490" y="160" width="40" height="80" as="alternateBounds" />
          </mxGeometry>
        </mxCell>
        <mxCell id="PFv9AXi_Do-M4x5E7HLB-69" value="&lt;ul&gt;&lt;li&gt;&lt;font style=&quot;font-size: 10px;&quot;&gt;Позиция - xy&lt;/font&gt;&lt;/li&gt;&lt;li style=&quot;&quot;&gt;&lt;span style=&quot;font-size: 10px;&quot;&gt;результативный - да/нет&lt;/span&gt;&lt;/li&gt;&lt;li style=&quot;&quot;&gt;&lt;span style=&quot;font-size: 10px;&quot;&gt;массив(сет) игроков которым принадлежит выстрел&lt;/span&gt;&lt;/li&gt;&lt;/ul&gt;" style="text;html=1;align=left;verticalAlign=middle;resizable=0;points=[];autosize=1;strokeColor=none;fillColor=none;" parent="PFv9AXi_Do-M4x5E7HLB-68" vertex="1">
          <mxGeometry y="-12.5" width="300" height="80" as="geometry" />
        </mxCell>
        <mxCell id="PFv9AXi_Do-M4x5E7HLB-70" value="" style="endArrow=none;dashed=1;html=1;dashPattern=1 3;strokeWidth=2;rounded=0;entryX=0.015;entryY=0.685;entryDx=0;entryDy=0;entryPerimeter=0;exitX=1;exitY=0.5;exitDx=0;exitDy=0;" parent="1" source="PFv9AXi_Do-M4x5E7HLB-68" target="PFv9AXi_Do-M4x5E7HLB-14" edge="1">
          <mxGeometry width="50" height="50" relative="1" as="geometry">
            <mxPoint x="-60" y="330" as="sourcePoint" />
            <mxPoint x="-10" y="280" as="targetPoint" />
          </mxGeometry>
        </mxCell>
        <mxCell id="PFv9AXi_Do-M4x5E7HLB-71" value="-Игрок видит только свои промахи&lt;div&gt;-Если корабль подбит - его видит только тот кто подбил и только те клетки которые он подбил&lt;/div&gt;&lt;div&gt;-Если корабль убит - он становится виден всем&lt;/div&gt;" style="text;html=1;align=left;verticalAlign=middle;whiteSpace=wrap;rounded=0;fontSize=9;fillColor=#e1d5e7;strokeColor=#9673a6;" parent="1" vertex="1">
          <mxGeometry x="-490" y="227.5" width="200" height="87.5" as="geometry" />
        </mxCell>
        <mxCell id="PFv9AXi_Do-M4x5E7HLB-73" value="&lt;div&gt;{&lt;/div&gt;&lt;div&gt;&amp;nbsp; &amp;nbsp; &quot;type&quot;: &quot;gameState&quot;,&lt;/div&gt;&lt;div&gt;&amp;nbsp; &amp;nbsp; &quot;field&quot;: {&lt;/div&gt;&lt;div&gt;&amp;nbsp; &amp;nbsp; &amp;nbsp; &amp;nbsp; &quot;width&quot;: 100,&lt;/div&gt;&lt;div&gt;&amp;nbsp; &amp;nbsp; &amp;nbsp; &amp;nbsp; &quot;height&quot;: 200&lt;/div&gt;&lt;div&gt;&amp;nbsp; &amp;nbsp; },&lt;/div&gt;&lt;div&gt;&amp;nbsp; &amp;nbsp; &quot;ships&quot;: [&lt;/div&gt;&lt;div&gt;&amp;nbsp; &amp;nbsp; &amp;nbsp; &amp;nbsp; {&lt;/div&gt;&lt;div&gt;&amp;nbsp; &amp;nbsp; &amp;nbsp; &amp;nbsp; &amp;nbsp; &amp;nbsp; &quot;isDead&quot;: false,&lt;/div&gt;&lt;div&gt;&amp;nbsp; &amp;nbsp; &amp;nbsp; &amp;nbsp; &amp;nbsp; &amp;nbsp; &quot;position&quot;: {&lt;/div&gt;&lt;div&gt;&amp;nbsp; &amp;nbsp; &amp;nbsp; &amp;nbsp; &amp;nbsp; &amp;nbsp; &amp;nbsp; &amp;nbsp; &quot;start&quot;: {&lt;/div&gt;&lt;div&gt;&amp;nbsp; &amp;nbsp; &amp;nbsp; &amp;nbsp; &amp;nbsp; &amp;nbsp; &amp;nbsp; &amp;nbsp; &amp;nbsp; &amp;nbsp; &quot;x&quot;: 2,&lt;/div&gt;&lt;div&gt;&amp;nbsp; &amp;nbsp; &amp;nbsp; &amp;nbsp; &amp;nbsp; &amp;nbsp; &amp;nbsp; &amp;nbsp; &amp;nbsp; &amp;nbsp; &quot;y&quot;: 3&lt;/div&gt;&lt;div&gt;&amp;nbsp; &amp;nbsp; &amp;nbsp; &amp;nbsp; &amp;nbsp; &amp;nbsp; &amp;nbsp; &amp;nbsp; },&lt;/div&gt;&lt;div&gt;&amp;nbsp; &amp;nbsp; &amp;nbsp; &amp;nbsp; &amp;nbsp; &amp;nbsp; &amp;nbsp; &amp;nbsp; &quot;end&quot;: {&lt;/div&gt;&lt;div&gt;&amp;nbsp; &amp;nbsp; &amp;nbsp; &amp;nbsp; &amp;nbsp; &amp;nbsp; &amp;nbsp; &amp;nbsp; &amp;nbsp; &amp;nbsp; &quot;x&quot;: 4,&lt;/div&gt;&lt;div&gt;&amp;nbsp; &amp;nbsp; &amp;nbsp; &amp;nbsp; &amp;nbsp; &amp;nbsp; &amp;nbsp; &amp;nbsp; &amp;nbsp; &amp;nbsp; &quot;y&quot;: 3&lt;/div&gt;&lt;div&gt;&amp;nbsp; &amp;nbsp; &amp;nbsp; &amp;nbsp; &amp;nbsp; &amp;nbsp; &amp;nbsp; &amp;nbsp; }&lt;/div&gt;&lt;div&gt;&amp;nbsp; &amp;nbsp; &amp;nbsp; &amp;nbsp; &amp;nbsp; &amp;nbsp; },&lt;/div&gt;&lt;div&gt;&amp;nbsp; &amp;nbsp; &amp;nbsp; &amp;nbsp; &amp;nbsp; &amp;nbsp; &quot;deckCount&quot;: 3,&lt;/div&gt;&lt;div&gt;&amp;nbsp; &amp;nbsp; &amp;nbsp; &amp;nbsp; &amp;nbsp; &amp;nbsp; &quot;owner&quot;: &quot;id&quot;,&lt;/div&gt;&lt;div&gt;&amp;nbsp; &amp;nbsp; &amp;nbsp; &amp;nbsp; &amp;nbsp; &amp;nbsp; &quot;decks&quot;: [&lt;/div&gt;&lt;div&gt;&amp;nbsp; &amp;nbsp; &amp;nbsp; &amp;nbsp; &amp;nbsp; &amp;nbsp; &amp;nbsp; &amp;nbsp; {&lt;/div&gt;&lt;div&gt;&amp;nbsp; &amp;nbsp; &amp;nbsp; &amp;nbsp; &amp;nbsp; &amp;nbsp; &amp;nbsp; &amp;nbsp; &amp;nbsp; &amp;nbsp; &quot;point&quot;: {&lt;/div&gt;&lt;div&gt;&amp;nbsp; &amp;nbsp; &amp;nbsp; &amp;nbsp; &amp;nbsp; &amp;nbsp; &amp;nbsp; &amp;nbsp; &amp;nbsp; &amp;nbsp; &amp;nbsp; &amp;nbsp; &quot;x&quot;: 2,&lt;/div&gt;&lt;div&gt;&amp;nbsp; &amp;nbsp; &amp;nbsp; &amp;nbsp; &amp;nbsp; &amp;nbsp; &amp;nbsp; &amp;nbsp; &amp;nbsp; &amp;nbsp; &amp;nbsp; &amp;nbsp; &quot;y&quot;: 2&lt;/div&gt;&lt;div&gt;&amp;nbsp; &amp;nbsp; &amp;nbsp; &amp;nbsp; &amp;nbsp; &amp;nbsp; &amp;nbsp; &amp;nbsp; &amp;nbsp; &amp;nbsp; },&lt;/div&gt;&lt;div&gt;&amp;nbsp; &amp;nbsp; &amp;nbsp; &amp;nbsp; &amp;nbsp; &amp;nbsp; &amp;nbsp; &amp;nbsp; &amp;nbsp; &amp;nbsp; &quot;isDead&quot;: false&lt;/div&gt;&lt;div&gt;&amp;nbsp; &amp;nbsp; &amp;nbsp; &amp;nbsp; &amp;nbsp; &amp;nbsp; &amp;nbsp; &amp;nbsp; }&lt;/div&gt;&lt;div&gt;&amp;nbsp; &amp;nbsp; &amp;nbsp; &amp;nbsp; &amp;nbsp; &amp;nbsp; ]&lt;/div&gt;&lt;div&gt;&amp;nbsp; &amp;nbsp; &amp;nbsp; &amp;nbsp; }&lt;/div&gt;&lt;div&gt;&amp;nbsp; &amp;nbsp; ],&lt;/div&gt;&lt;div&gt;&amp;nbsp; &amp;nbsp; &quot;shots&quot;: [&lt;/div&gt;&lt;div&gt;&amp;nbsp; &amp;nbsp; &amp;nbsp; &amp;nbsp; {&lt;/div&gt;&lt;div&gt;&amp;nbsp; &amp;nbsp; &amp;nbsp; &amp;nbsp; &amp;nbsp; &amp;nbsp; &quot;point&quot;: {&lt;/div&gt;&lt;div&gt;&amp;nbsp; &amp;nbsp; &amp;nbsp; &amp;nbsp; &amp;nbsp; &amp;nbsp; &amp;nbsp; &amp;nbsp; &quot;x&quot;: 2,&lt;/div&gt;&lt;div&gt;&amp;nbsp; &amp;nbsp; &amp;nbsp; &amp;nbsp; &amp;nbsp; &amp;nbsp; &amp;nbsp; &amp;nbsp; &quot;y&quot;: 2&lt;/div&gt;&lt;div&gt;&amp;nbsp; &amp;nbsp; &amp;nbsp; &amp;nbsp; &amp;nbsp; &amp;nbsp; },&lt;/div&gt;&lt;div&gt;&amp;nbsp; &amp;nbsp; &amp;nbsp; &amp;nbsp; &amp;nbsp; &amp;nbsp; &quot;isHit&quot;: true&lt;/div&gt;&lt;div&gt;&amp;nbsp; &amp;nbsp; &amp;nbsp; &amp;nbsp; }&lt;/div&gt;&lt;div&gt;&amp;nbsp; &amp;nbsp; ]&lt;/div&gt;&lt;div&gt;}&lt;/div&gt;" style="text;html=1;align=left;verticalAlign=middle;whiteSpace=wrap;rounded=0;fillColor=#f8cecc;strokeColor=#b85450;" parent="1" vertex="1">
          <mxGeometry x="-770" y="370" width="190" height="650" as="geometry" />
        </mxCell>
        <mxCell id="PFv9AXi_Do-M4x5E7HLB-74" value="Драфт json для gameState" style="text;html=1;align=center;verticalAlign=middle;resizable=0;points=[];autosize=1;strokeColor=none;fillColor=none;" parent="1" vertex="1">
          <mxGeometry x="-780" y="340" width="170" height="30" as="geometry" />
        </mxCell>
        <mxCell id="PFv9AXi_Do-M4x5E7HLB-75" value="&lt;h1 style=&quot;margin-top: 0px;&quot;&gt;BattleWater&lt;/h1&gt;&lt;p&gt;Игровая логика внутри катки&lt;/p&gt;" style="text;html=1;whiteSpace=wrap;overflow=hidden;rounded=0;" parent="1" vertex="1">
          <mxGeometry x="10" y="50" width="180" height="70" as="geometry" />
        </mxCell>
        <mxCell id="QbWSYiIUv1RwiBLjb3eN-1" value="- Игроки" style="shape=cylinder3;whiteSpace=wrap;html=1;boundedLbl=1;backgroundOutline=1;size=15;align=left;" vertex="1" parent="1">
          <mxGeometry x="-195" y="-195" width="140" height="195" as="geometry" />
        </mxCell>
        <mxCell id="QbWSYiIUv1RwiBLjb3eN-2" value="Players STATE" style="text;html=1;align=center;verticalAlign=middle;whiteSpace=wrap;rounded=0;" vertex="1" parent="1">
          <mxGeometry x="-190" y="-225" width="130" height="40" as="geometry" />
        </mxCell>
        <mxCell id="QbWSYiIUv1RwiBLjb3eN-4" value="Игорк" style="swimlane;horizontal=0;whiteSpace=wrap;html=1;" vertex="1" parent="1">
          <mxGeometry x="-490" y="-120" width="230" height="100" as="geometry">
            <mxRectangle x="-490" y="50" width="40" height="80" as="alternateBounds" />
          </mxGeometry>
        </mxCell>
        <mxCell id="QbWSYiIUv1RwiBLjb3eN-5" value="&lt;ul&gt;&lt;li&gt;&lt;span style=&quot;font-size: 10px;&quot;&gt;userNickName&lt;/span&gt;&lt;/li&gt;&lt;li style=&quot;&quot;&gt;&lt;span style=&quot;font-size: 10px;&quot;&gt;userId&lt;/span&gt;&lt;/li&gt;&lt;li&gt;&lt;span style=&quot;font-size: 10px;&quot;&gt;HP current (сумма хп всех кораблей)&lt;/span&gt;&lt;/li&gt;&lt;li&gt;&lt;span style=&quot;font-size: 10px;&quot;&gt;HP max&lt;/span&gt;&lt;/li&gt;&lt;/ul&gt;" style="text;html=1;align=left;verticalAlign=middle;resizable=0;points=[];autosize=1;strokeColor=none;fillColor=none;" vertex="1" parent="QbWSYiIUv1RwiBLjb3eN-4">
          <mxGeometry y="-10" width="230" height="100" as="geometry" />
        </mxCell>
        <mxCell id="QbWSYiIUv1RwiBLjb3eN-7" value="" style="endArrow=none;dashed=1;html=1;rounded=0;exitX=-0.001;exitY=0.582;exitDx=0;exitDy=0;exitPerimeter=0;entryX=0.988;entryY=0.531;entryDx=0;entryDy=0;entryPerimeter=0;" edge="1" parent="1" source="QbWSYiIUv1RwiBLjb3eN-1" target="QbWSYiIUv1RwiBLjb3eN-5">
          <mxGeometry width="50" height="50" relative="1" as="geometry">
            <mxPoint x="-280" y="-50" as="sourcePoint" />
            <mxPoint x="-230" y="-100" as="targetPoint" />
          </mxGeometry>
        </mxCell>
        <mxCell id="QbWSYiIUv1RwiBLjb3eN-9" value="&lt;div&gt;{&lt;/div&gt;&lt;div&gt;&amp;nbsp; &amp;nbsp; &quot;type&quot;: &quot;playersState&quot;,&lt;/div&gt;&lt;div&gt;&amp;nbsp; &amp;nbsp; &quot;players&quot;: [&lt;/div&gt;&lt;div&gt;&amp;nbsp; &amp;nbsp; &amp;nbsp; &amp;nbsp; {&lt;/div&gt;&lt;div&gt;&amp;nbsp; &amp;nbsp; &amp;nbsp; &amp;nbsp; &amp;nbsp; &amp;nbsp; &quot;userNickName&quot;: &quot;ComeClose&quot;,&lt;/div&gt;&lt;div&gt;&amp;nbsp; &amp;nbsp; &amp;nbsp; &amp;nbsp; &amp;nbsp; &amp;nbsp; &quot;userId&quot;: &quot;123123123&quot;,&lt;/div&gt;&lt;div&gt;&amp;nbsp; &amp;nbsp; &amp;nbsp; &amp;nbsp; &amp;nbsp; &amp;nbsp; &quot;currentHP&quot;: 30,&lt;/div&gt;&lt;div&gt;&amp;nbsp; &amp;nbsp; &amp;nbsp; &amp;nbsp; &amp;nbsp; &amp;nbsp; &quot;maxHP&quot;: 60&lt;/div&gt;&lt;div&gt;&amp;nbsp; &amp;nbsp; &amp;nbsp; &amp;nbsp; },&lt;/div&gt;&lt;div&gt;&amp;nbsp; &amp;nbsp; &amp;nbsp; &amp;nbsp; {&lt;/div&gt;&lt;div&gt;&amp;nbsp; &amp;nbsp; &amp;nbsp; &amp;nbsp; &amp;nbsp; &amp;nbsp; &quot;userNickName&quot;: &quot;AlexMen&quot;,&lt;/div&gt;&lt;div&gt;&amp;nbsp; &amp;nbsp; &amp;nbsp; &amp;nbsp; &amp;nbsp; &amp;nbsp; &quot;userId&quot;: &quot;123123123&quot;,&lt;/div&gt;&lt;div&gt;&amp;nbsp; &amp;nbsp; &amp;nbsp; &amp;nbsp; &amp;nbsp; &amp;nbsp; &quot;currentHP&quot;: 30,&lt;/div&gt;&lt;div&gt;&amp;nbsp; &amp;nbsp; &amp;nbsp; &amp;nbsp; &amp;nbsp; &amp;nbsp; &quot;maxHP&quot;: 60&lt;/div&gt;&lt;div&gt;&amp;nbsp; &amp;nbsp; &amp;nbsp; &amp;nbsp; }&lt;/div&gt;&lt;div&gt;&amp;nbsp; &amp;nbsp; ]&lt;/div&gt;&lt;div&gt;}&lt;/div&gt;" style="text;html=1;align=left;verticalAlign=middle;whiteSpace=wrap;rounded=0;fillColor=#f8cecc;strokeColor=#b85450;" vertex="1" parent="1">
          <mxGeometry x="-490" y="-420" width="230" height="290" as="geometry" />
        </mxCell>
        <mxCell id="QbWSYiIUv1RwiBLjb3eN-10" value="Драфт json для playersState" style="text;html=1;align=center;verticalAlign=middle;resizable=0;points=[];autosize=1;strokeColor=none;fillColor=none;" vertex="1" parent="1">
          <mxGeometry x="-500" y="-450" width="180" height="30" as="geometry" />
        </mxCell>
        <mxCell id="QbWSYiIUv1RwiBLjb3eN-14" style="edgeStyle=orthogonalEdgeStyle;rounded=0;orthogonalLoop=1;jettySize=auto;html=1;entryX=0.5;entryY=0;entryDx=0;entryDy=0;" edge="1" parent="1" source="QbWSYiIUv1RwiBLjb3eN-11">
          <mxGeometry relative="1" as="geometry">
            <mxPoint x="100" y="360" as="targetPoint" />
          </mxGeometry>
        </mxCell>
        <mxCell id="QbWSYiIUv1RwiBLjb3eN-11" value="Начало игры" style="rounded=0;whiteSpace=wrap;html=1;" vertex="1" parent="1">
          <mxGeometry x="10" y="247.5" width="180" height="60" as="geometry" />
        </mxCell>
        <mxCell id="QbWSYiIUv1RwiBLjb3eN-18" style="edgeStyle=orthogonalEdgeStyle;rounded=0;orthogonalLoop=1;jettySize=auto;html=1;" edge="1" parent="1" source="QbWSYiIUv1RwiBLjb3eN-15" target="QbWSYiIUv1RwiBLjb3eN-17">
          <mxGeometry relative="1" as="geometry" />
        </mxCell>
        <mxCell id="QbWSYiIUv1RwiBLjb3eN-15" value="Ожидание N выстрелов от M игроков" style="rounded=0;whiteSpace=wrap;html=1;" vertex="1" parent="1">
          <mxGeometry x="10" y="360" width="180" height="60" as="geometry" />
        </mxCell>
        <mxCell id="QbWSYiIUv1RwiBLjb3eN-21" style="edgeStyle=orthogonalEdgeStyle;rounded=0;orthogonalLoop=1;jettySize=auto;html=1;" edge="1" parent="1" source="QbWSYiIUv1RwiBLjb3eN-22">
          <mxGeometry relative="1" as="geometry">
            <mxPoint x="100" y="690" as="targetPoint" />
          </mxGeometry>
        </mxCell>
        <mxCell id="QbWSYiIUv1RwiBLjb3eN-17" value="Выстрел, если не прилетело сообщение от клиента, пропуск хода или рандом, обсуждаемо" style="rounded=0;whiteSpace=wrap;html=1;" vertex="1" parent="1">
          <mxGeometry x="10" y="470" width="180" height="60" as="geometry" />
        </mxCell>
        <mxCell id="QbWSYiIUv1RwiBLjb3eN-23" style="edgeStyle=orthogonalEdgeStyle;rounded=0;orthogonalLoop=1;jettySize=auto;html=1;entryX=1;entryY=0.5;entryDx=0;entryDy=0;exitX=1;exitY=0.5;exitDx=0;exitDy=0;" edge="1" parent="1" source="QbWSYiIUv1RwiBLjb3eN-22">
          <mxGeometry relative="1" as="geometry">
            <mxPoint x="190" y="390" as="targetPoint" />
            <Array as="points">
              <mxPoint x="240" y="650" />
              <mxPoint x="240" y="390" />
            </Array>
          </mxGeometry>
        </mxCell>
        <mxCell id="QbWSYiIUv1RwiBLjb3eN-24" value="НЕТ" style="edgeLabel;html=1;align=center;verticalAlign=middle;resizable=0;points=[];" vertex="1" connectable="0" parent="QbWSYiIUv1RwiBLjb3eN-23">
          <mxGeometry x="0.3795" y="-2" relative="1" as="geometry">
            <mxPoint x="-37" y="193" as="offset" />
          </mxGeometry>
        </mxCell>
        <mxCell id="QbWSYiIUv1RwiBLjb3eN-26" style="edgeStyle=orthogonalEdgeStyle;rounded=0;orthogonalLoop=1;jettySize=auto;html=1;exitX=0.5;exitY=1;exitDx=0;exitDy=0;" edge="1" parent="1" source="QbWSYiIUv1RwiBLjb3eN-22">
          <mxGeometry relative="1" as="geometry">
            <mxPoint x="100" y="800" as="targetPoint" />
          </mxGeometry>
        </mxCell>
        <mxCell id="QbWSYiIUv1RwiBLjb3eN-27" value="ДА" style="edgeLabel;html=1;align=center;verticalAlign=middle;resizable=0;points=[];" vertex="1" connectable="0" parent="QbWSYiIUv1RwiBLjb3eN-26">
          <mxGeometry x="-0.2954" relative="1" as="geometry">
            <mxPoint y="6" as="offset" />
          </mxGeometry>
        </mxCell>
        <mxCell id="QbWSYiIUv1RwiBLjb3eN-30" style="edgeStyle=orthogonalEdgeStyle;rounded=0;orthogonalLoop=1;jettySize=auto;html=1;exitX=1;exitY=0.5;exitDx=0;exitDy=0;entryX=1;entryY=0.5;entryDx=0;entryDy=0;" edge="1" parent="1" source="QbWSYiIUv1RwiBLjb3eN-29">
          <mxGeometry relative="1" as="geometry">
            <mxPoint x="190" y="390" as="targetPoint" />
            <Array as="points">
              <mxPoint x="240" y="871" />
              <mxPoint x="240" y="390" />
            </Array>
          </mxGeometry>
        </mxCell>
        <mxCell id="QbWSYiIUv1RwiBLjb3eN-31" value="НЕТ" style="edgeLabel;html=1;align=center;verticalAlign=middle;resizable=0;points=[];" vertex="1" connectable="0" parent="QbWSYiIUv1RwiBLjb3eN-30">
          <mxGeometry x="-0.6737" relative="1" as="geometry">
            <mxPoint x="-35" y="28" as="offset" />
          </mxGeometry>
        </mxCell>
        <mxCell id="QbWSYiIUv1RwiBLjb3eN-33" style="edgeStyle=orthogonalEdgeStyle;rounded=0;orthogonalLoop=1;jettySize=auto;html=1;" edge="1" parent="1" source="QbWSYiIUv1RwiBLjb3eN-29">
          <mxGeometry relative="1" as="geometry">
            <mxPoint x="100" y="1010" as="targetPoint" />
          </mxGeometry>
        </mxCell>
        <mxCell id="QbWSYiIUv1RwiBLjb3eN-34" value="ДА" style="edgeLabel;html=1;align=center;verticalAlign=middle;resizable=0;points=[];" vertex="1" connectable="0" parent="QbWSYiIUv1RwiBLjb3eN-33">
          <mxGeometry x="-0.0488" relative="1" as="geometry">
            <mxPoint as="offset" />
          </mxGeometry>
        </mxCell>
        <mxCell id="QbWSYiIUv1RwiBLjb3eN-29" value="Живые корабли остались только у одного игрока?" style="rhombus;whiteSpace=wrap;html=1;" vertex="1" parent="1">
          <mxGeometry x="28.75" y="800" width="142.5" height="142.5" as="geometry" />
        </mxCell>
        <mxCell id="QbWSYiIUv1RwiBLjb3eN-32" value="КОНЕЦ" style="rounded=0;whiteSpace=wrap;html=1;" vertex="1" parent="1">
          <mxGeometry x="40" y="1010" width="120" height="60" as="geometry" />
        </mxCell>
        <mxCell id="QbWSYiIUv1RwiBLjb3eN-35" value="Начальное состояние, сгенерированное на сервере" style="shape=parallelogram;perimeter=parallelogramPerimeter;whiteSpace=wrap;html=1;fixedSize=1;" vertex="1" parent="1">
          <mxGeometry x="-5" y="127.5" width="210" height="60" as="geometry" />
        </mxCell>
        <mxCell id="QbWSYiIUv1RwiBLjb3eN-37" value="" style="edgeStyle=orthogonalEdgeStyle;rounded=0;orthogonalLoop=1;jettySize=auto;html=1;" edge="1" parent="1" source="QbWSYiIUv1RwiBLjb3eN-17" target="QbWSYiIUv1RwiBLjb3eN-22">
          <mxGeometry relative="1" as="geometry">
            <mxPoint x="100" y="530" as="sourcePoint" />
            <mxPoint x="100" y="690" as="targetPoint" />
          </mxGeometry>
        </mxCell>
        <mxCell id="QbWSYiIUv1RwiBLjb3eN-22" value="Результативный?" style="rhombus;whiteSpace=wrap;html=1;" vertex="1" parent="1">
          <mxGeometry x="30" y="580" width="140" height="140" as="geometry" />
        </mxCell>
        <mxCell id="QbWSYiIUv1RwiBLjb3eN-43" value="" style="rounded=0;whiteSpace=wrap;html=1;fillColor=#dae8fc;strokeColor=#6c8ebf;" vertex="1" parent="1">
          <mxGeometry x="437" y="200" width="453" height="570" as="geometry" />
        </mxCell>
        <mxCell id="QbWSYiIUv1RwiBLjb3eN-44" value="" style="shape=flexArrow;endArrow=classic;html=1;rounded=0;entryX=0.008;entryY=0.166;entryDx=0;entryDy=0;entryPerimeter=0;exitX=0.998;exitY=0.041;exitDx=0;exitDy=0;exitPerimeter=0;" edge="1" parent="1" source="QbWSYiIUv1RwiBLjb3eN-40" target="QbWSYiIUv1RwiBLjb3eN-43">
          <mxGeometry width="50" height="50" relative="1" as="geometry">
            <mxPoint x="150" y="540" as="sourcePoint" />
            <mxPoint x="200" y="490" as="targetPoint" />
          </mxGeometry>
        </mxCell>
        <mxCell id="QbWSYiIUv1RwiBLjb3eN-47" style="edgeStyle=orthogonalEdgeStyle;rounded=0;orthogonalLoop=1;jettySize=auto;html=1;" edge="1" parent="1" source="QbWSYiIUv1RwiBLjb3eN-45" target="QbWSYiIUv1RwiBLjb3eN-46">
          <mxGeometry relative="1" as="geometry" />
        </mxCell>
        <mxCell id="QbWSYiIUv1RwiBLjb3eN-45" value="Ожидание выстрела от игрока,&lt;div&gt;turnMiss = 0&lt;/div&gt;" style="rounded=0;whiteSpace=wrap;html=1;" vertex="1" parent="1">
          <mxGeometry x="542" y="270" width="180" height="60" as="geometry" />
        </mxCell>
        <mxCell id="QbWSYiIUv1RwiBLjb3eN-52" style="edgeStyle=orthogonalEdgeStyle;rounded=0;orthogonalLoop=1;jettySize=auto;html=1;" edge="1" parent="1" source="QbWSYiIUv1RwiBLjb3eN-46" target="QbWSYiIUv1RwiBLjb3eN-49">
          <mxGeometry relative="1" as="geometry" />
        </mxCell>
        <mxCell id="QbWSYiIUv1RwiBLjb3eN-60" value="НЕТ" style="edgeLabel;html=1;align=center;verticalAlign=middle;resizable=0;points=[];" vertex="1" connectable="0" parent="QbWSYiIUv1RwiBLjb3eN-52">
          <mxGeometry x="-0.4477" relative="1" as="geometry">
            <mxPoint as="offset" />
          </mxGeometry>
        </mxCell>
        <mxCell id="QbWSYiIUv1RwiBLjb3eN-56" style="edgeStyle=orthogonalEdgeStyle;rounded=0;orthogonalLoop=1;jettySize=auto;html=1;entryX=1;entryY=0.5;entryDx=0;entryDy=0;" edge="1" parent="1" source="QbWSYiIUv1RwiBLjb3eN-46" target="QbWSYiIUv1RwiBLjb3eN-45">
          <mxGeometry relative="1" as="geometry">
            <Array as="points">
              <mxPoint x="742" y="430" />
              <mxPoint x="742" y="300" />
            </Array>
          </mxGeometry>
        </mxCell>
        <mxCell id="QbWSYiIUv1RwiBLjb3eN-57" value="ДА" style="edgeLabel;html=1;align=center;verticalAlign=middle;resizable=0;points=[];" vertex="1" connectable="0" parent="QbWSYiIUv1RwiBLjb3eN-56">
          <mxGeometry x="-0.6243" y="1" relative="1" as="geometry">
            <mxPoint as="offset" />
          </mxGeometry>
        </mxCell>
        <mxCell id="QbWSYiIUv1RwiBLjb3eN-46" value="выстрелил?" style="rhombus;whiteSpace=wrap;html=1;" vertex="1" parent="1">
          <mxGeometry x="592" y="390" width="80" height="80" as="geometry" />
        </mxCell>
        <mxCell id="QbWSYiIUv1RwiBLjb3eN-54" style="edgeStyle=orthogonalEdgeStyle;rounded=0;orthogonalLoop=1;jettySize=auto;html=1;" edge="1" parent="1" source="QbWSYiIUv1RwiBLjb3eN-49" target="QbWSYiIUv1RwiBLjb3eN-53">
          <mxGeometry relative="1" as="geometry" />
        </mxCell>
        <mxCell id="QbWSYiIUv1RwiBLjb3eN-61" value="ДА" style="edgeLabel;html=1;align=center;verticalAlign=middle;resizable=0;points=[];" vertex="1" connectable="0" parent="QbWSYiIUv1RwiBLjb3eN-54">
          <mxGeometry x="-0.5331" y="-3" relative="1" as="geometry">
            <mxPoint as="offset" />
          </mxGeometry>
        </mxCell>
        <mxCell id="QbWSYiIUv1RwiBLjb3eN-58" style="edgeStyle=orthogonalEdgeStyle;rounded=0;orthogonalLoop=1;jettySize=auto;html=1;entryX=1;entryY=0.5;entryDx=0;entryDy=0;" edge="1" parent="1" source="QbWSYiIUv1RwiBLjb3eN-49" target="QbWSYiIUv1RwiBLjb3eN-45">
          <mxGeometry relative="1" as="geometry">
            <Array as="points">
              <mxPoint x="800" y="580" />
              <mxPoint x="800" y="300" />
            </Array>
          </mxGeometry>
        </mxCell>
        <mxCell id="QbWSYiIUv1RwiBLjb3eN-59" value="НЕТ" style="edgeLabel;html=1;align=center;verticalAlign=middle;resizable=0;points=[];" vertex="1" connectable="0" parent="QbWSYiIUv1RwiBLjb3eN-58">
          <mxGeometry x="-0.7867" relative="1" as="geometry">
            <mxPoint x="-6" as="offset" />
          </mxGeometry>
        </mxCell>
        <mxCell id="QbWSYiIUv1RwiBLjb3eN-49" value="turnMiss == MaxTurnMiss ?" style="rhombus;whiteSpace=wrap;html=1;" vertex="1" parent="1">
          <mxGeometry x="571" y="520" width="122" height="124.77" as="geometry" />
        </mxCell>
        <mxCell id="QbWSYiIUv1RwiBLjb3eN-50" value="MaxTurnMiss - параметр задается на бэке" style="rounded=1;whiteSpace=wrap;html=1;" vertex="1" parent="1">
          <mxGeometry x="451" y="552.38" width="120" height="60" as="geometry" />
        </mxCell>
        <mxCell id="QbWSYiIUv1RwiBLjb3eN-53" value="КИКАЕМ НАХУЙ" style="rounded=0;whiteSpace=wrap;html=1;" vertex="1" parent="1">
          <mxGeometry x="572" y="680" width="120" height="60" as="geometry" />
        </mxCell>
        <mxCell id="QbWSYiIUv1RwiBLjb3eN-63" value="turnMiss += 1" style="rounded=0;whiteSpace=wrap;html=1;" vertex="1" parent="1">
          <mxGeometry x="740" y="450" width="120" height="60" as="geometry" />
        </mxCell>
      </root>
    </mxGraphModel>
  </diagram>
</mxfile>
